<?xml version="1.0" encoding="UTF-8"?>
<svg version="1.1" xmlns="http://www.w3.org/2000/svg" width="71" height="90">
<path d="M0 0 C2.12762671 0.9187479 3.47776824 1.75819723 5.078125 3.44140625 C5.97626273 5.83343135 6.34354275 8.05755332 6.6796875 10.58984375 C7.11131147 13.67891724 7.87379876 16.56104968 8.703125 19.56640625 C9.6082957 23.07900895 10.24447663 26.18852276 10.140625 29.81640625 C10.07458965 33.64645656 10.87209177 35.83613669 12.078125 39.44140625 C12.68197429 42.1979457 13.16240304 44.97313413 13.640625 47.75390625 C14.0796854 52.47954388 14.0796854 52.47954388 16.078125 56.44140625 C20.77201804 49.50260785 20.32969461 41.78391106 20.59570312 33.69335938 C20.80437389 28.79943926 21.45524502 24.29546765 22.61206055 19.53735352 C23.27134406 16.57247716 23.48668269 13.58767754 23.765625 10.56640625 C24.67098326 4.77616724 24.67098326 4.77616724 27.890625 2.12890625 C33.82342603 0.65816986 41.54099559 -0.02815651 47.25 2.34375 C48.890625 3.44140625 48.890625 3.44140625 51.078125 5.44140625 C50.453125 7.37890625 50.453125 7.37890625 49.078125 9.44140625 C45.953125 10.19140625 45.953125 10.19140625 43.078125 10.44140625 C43.050932 12.02464313 43.03164194 13.60801687 43.015625 15.19140625 C43.00402344 16.073125 42.99242187 16.95484375 42.98046875 17.86328125 C43.07059603 20.24264153 43.4805861 22.15315652 44.078125 24.44140625 C44.37366963 28.90934562 44.12787258 33.31665791 43.578125 37.75390625 C42.88033501 43.89833477 43.02687825 50.04803978 43.11523438 56.22192383 C43.16439775 61.08673454 42.90883704 65.64534223 42.078125 70.44140625 C45.048125 70.77140625 48.018125 71.10140625 51.078125 71.44140625 C50.765625 73.81640625 50.765625 73.81640625 50.078125 76.44140625 C45.45679837 79.52229067 40.85299289 78.9269035 35.48828125 77.98828125 C33.33866083 77.51285177 31.20620817 77.00487035 29.078125 76.44140625 C29.408125 74.79140625 29.738125 73.14140625 30.078125 71.44140625 C33.048125 70.94640625 33.048125 70.94640625 36.078125 70.44140625 C35.98724609 69.42046875 35.98724609 69.42046875 35.89453125 68.37890625 C33.83352887 44.53469408 33.83352887 44.53469408 34.23828125 32.796875 C34.25562615 30.16926424 34.25562615 30.16926424 32.078125 27.44140625 C28.5701635 37.07978589 27.2572581 46.20245087 26.28710938 56.34228516 C24.76573297 71.62358695 24.76573297 71.62358695 20.078125 76.44140625 C16.828125 77.31640625 16.828125 77.31640625 14.078125 77.44140625 C6.96581205 70.3290933 6.4597998 58.56348992 5.015625 49.06640625 C4.69683486 46.97442596 4.37280186 44.88323639 4.04296875 42.79296875 C3.9049585 41.88369629 3.76694824 40.97442383 3.62475586 40.03759766 C3.14463557 37.38684081 3.14463557 37.38684081 2.01782227 34.79443359 C1.078125 32.44140625 1.078125 32.44140625 1.078125 29.44140625 C0.418125 29.77140625 -0.241875 30.10140625 -0.921875 30.44140625 C-1.07031037 35.63740532 -1.17912837 40.83216853 -1.25146484 46.02978516 C-1.28161983 47.79725644 -1.32255178 49.56457828 -1.37451172 51.33154297 C-1.44739109 53.87374707 -1.48134128 56.41397245 -1.5078125 58.95703125 C-1.53878021 59.74571594 -1.56974792 60.53440063 -1.60165405 61.34698486 C-1.66856902 63.87429296 -1.66856902 63.87429296 -0.921875 67.44140625 C1.94811205 70.03189123 1.94811205 70.03189123 5.078125 71.44140625 C4.890625 73.75390625 4.890625 73.75390625 4.078125 76.44140625 C0.1023866 79.54676037 -3.08093335 79.84803645 -8.046875 79.81640625 C-9.87605469 79.82800781 -9.87605469 79.82800781 -11.7421875 79.83984375 C-14.921875 79.44140625 -14.921875 79.44140625 -16.83984375 78.1171875 C-18.46694939 75.59722967 -18.11647728 73.36044043 -17.921875 70.44140625 C-12.171875 67.44140625 -12.171875 67.44140625 -9.921875 67.44140625 C-9.95216797 66.7858374 -9.98246094 66.13026855 -10.01367188 65.45483398 C-10.85202657 46.7675853 -11.04464868 28.14267164 -10.921875 9.44140625 C-12.901875 8.78140625 -14.881875 8.12140625 -16.921875 7.44140625 C-16.921875 6.45140625 -16.921875 5.46140625 -16.921875 4.44140625 C-11.92216368 -0.16871718 -6.63827949 -1.92941863 0 0 Z M-1.921875 17.44140625 C-0.921875 20.44140625 -0.921875 20.44140625 -0.921875 20.44140625 Z M16.078125 63.44140625 C16.078125 64.10140625 16.078125 64.76140625 16.078125 65.44140625 C16.738125 65.44140625 17.398125 65.44140625 18.078125 65.44140625 C18.078125 64.78140625 18.078125 64.12140625 18.078125 63.44140625 C17.418125 63.44140625 16.758125 63.44140625 16.078125 63.44140625 Z " fill="#C0C0C0" transform="translate(17.921875,6.55859375)"/>
<path d="M0 0 C0.33 0 0.66 0 1 0 C1.11138159 5.45769811 0.91657981 10.61509359 0 16 C0.66 16.33 1.32 16.66 2 17 C0.35 17.33 -1.3 17.66 -3 18 C-3 17.34 -3 16.68 -3 16 C-2.34 16 -1.68 16 -1 16 C-0.67 10.72 -0.34 5.44 0 0 Z " fill="#4D4D4D" transform="translate(60,61)"/>
</svg>
